<svg xmlns="http://www.w3.org/2000/svg" width="319.112" height="44.561" viewBox="0 0 319.112 44.561">
  <path id="Exclusión_2" data-name="Exclusión 2" d="M2030.112-4156.939H1750a19.372,19.372,0,0,1-13.789-5.712,19.372,19.372,0,0,1-5.712-13.788V-4182a19.371,19.371,0,0,1,5.712-13.788A19.374,19.374,0,0,1,1750-4201.5h280.111a19.372,19.372,0,0,1,13.788,5.711,19.372,19.372,0,0,1,5.711,13.788v5.561a19.372,19.372,0,0,1-5.711,13.788A19.37,19.37,0,0,1,2030.112-4156.939Zm-220.02-14.443h0v2.467a7.052,7.052,0,0,0,3.042.547,6.226,6.226,0,0,0,4.435-1.453,5.394,5.394,0,0,0,1.531-4.095v-8.415h-2.931v1.1h-.038a2.894,2.894,0,0,0-2.6-1.336,3.892,3.892,0,0,0-3.126,1.419,5.806,5.806,0,0,0-1.187,3.832,5.216,5.216,0,0,0,1.066,3.433,3.576,3.576,0,0,0,2.886,1.28,3.285,3.285,0,0,0,2.959-1.6h.038v.752a2.826,2.826,0,0,1-.817,2.129,3.2,3.2,0,0,1-2.3.783A5.856,5.856,0,0,1,1810.092-4171.382Zm150.45-11.179a5.349,5.349,0,0,0-3.813,1.331,4.846,4.846,0,0,0-1.411,3.688,4.847,4.847,0,0,0,1.359,3.613,5.134,5.134,0,0,0,3.735,1.331,5.188,5.188,0,0,0,3.8-1.373,5.045,5.045,0,0,0,1.386-3.739,4.752,4.752,0,0,0-1.345-3.521A5.065,5.065,0,0,0,1960.542-4182.562Zm-11.616,0a5.353,5.353,0,0,0-3.813,1.331,4.85,4.85,0,0,0-1.41,3.688,4.844,4.844,0,0,0,1.359,3.613,5.128,5.128,0,0,0,3.734,1.331,5.188,5.188,0,0,0,3.8-1.373,5.046,5.046,0,0,0,1.387-3.739,4.754,4.754,0,0,0-1.344-3.521A5.069,5.069,0,0,0,1948.926-4182.562Zm-13.507,8.627h.037a3,3,0,0,0,2.653,1.336,3.793,3.793,0,0,0,3.1-1.437,5.921,5.921,0,0,0,1.16-3.814,5.464,5.464,0,0,0-.993-3.451,3.4,3.4,0,0,0-2.829-1.261,3.493,3.493,0,0,0-3.089,1.661h-.037v-5.993h-2.931v14.064h2.931v-1.1Zm-9.027-8.627a4.6,4.6,0,0,0-3.377,1.382,5.106,5.106,0,0,0-1.373,3.748,4.84,4.84,0,0,0,1.272,3.559,4.84,4.84,0,0,0,3.571,1.275,7.273,7.273,0,0,0,3.424-.7v-2.115a5.115,5.115,0,0,1-2.755.742c-1.632,0-2.509-.7-2.608-2.07h6.2v-1.234a4.773,4.773,0,0,0-1.137-3.349A4.17,4.17,0,0,0,1926.392-4182.562Zm-8.535,0a5.392,5.392,0,0,0-3.884,1.4,5.074,5.074,0,0,0-1.451,3.818,4.6,4.6,0,0,0,1.354,3.423,4.869,4.869,0,0,0,3.544,1.326,5.834,5.834,0,0,0,2.867-.575v-2.356a3.889,3.889,0,0,1-2.144.687,2.607,2.607,0,0,1-1.939-.718,2.724,2.724,0,0,1-.7-1.981,2.769,2.769,0,0,1,.737-2.037,2.718,2.718,0,0,1,2-.737,3.357,3.357,0,0,1,2.051.687v-2.486A5.007,5.007,0,0,0,1917.857-4182.562Zm-11.532,2c1.121,0,1.689.524,1.689,1.559l-2.579.343c-2.173.283-3.275,1.357-3.275,3.191a2.821,2.821,0,0,0,.793,2.092,2.971,2.971,0,0,0,2.175.783,3.108,3.108,0,0,0,2.83-1.6H1908v1.363h2.774v-5.677c0-2.69-1.367-4.054-4.064-4.054a8.8,8.8,0,0,0-1.935.242,7.246,7.246,0,0,0-1.674.557v2.208A5.786,5.786,0,0,1,1906.325-4180.566Zm-36.163.4v4.351c0,2.136,1.043,3.219,3.1,3.219a4.347,4.347,0,0,0,1.957-.343v-2.171a2,2,0,0,1-.955.269c-.782,0-1.178-.5-1.178-1.485v-3.84h2.133v-2.162h-2.133v-2.885l-2.923.834v2.051h-1.539v2.162Zm-67.335-2.394a5.353,5.353,0,0,0-3.813,1.331,4.85,4.85,0,0,0-1.41,3.688,4.847,4.847,0,0,0,1.359,3.613,5.128,5.128,0,0,0,3.734,1.331,5.187,5.187,0,0,0,3.8-1.373,5.046,5.046,0,0,0,1.388-3.739,4.755,4.755,0,0,0-1.345-3.521A5.07,5.07,0,0,0,1802.827-4182.562Zm45.014.232,2.682,9.5h3.043l1.5-5.6a7.32,7.32,0,0,0,.186-1.177h.056a5.711,5.711,0,0,0,.157,1.215l1.4,5.566h3.08l2.737-9.5h-2.718l-1.234,6.2a10.547,10.547,0,0,0-.149,1.076h-.065a9.956,9.956,0,0,0-.13-1.077l-1.466-6.2h-2.792l-1.633,6.16a5.9,5.9,0,0,0-.167,1.095h-.056a7.948,7.948,0,0,0-.139-1.058l-1.308-6.2Zm119.66-4.564v14.064h2.931v-4.711h.037l3.034,4.712h3.516l-3.646-5.037,3.4-4.462H1973.3l-2.83,4.388h-.037v-8.952Zm-73.662.761v13.3h3V-4178h4.315v-2.431h-4.315v-3.267h4.694v-2.439Zm-12.293,5.816c1.01,0,1.522.7,1.522,2.088v5.4h2.922v-5.835c0-2.585-1.086-3.9-3.229-3.9a3.344,3.344,0,0,0-2.922,1.642h-.037v-5.975h-2.932v14.064h2.932v-5.417a2.266,2.266,0,0,1,.482-1.485A1.565,1.565,0,0,1,1881.546-4180.316Zm-17.47-2.013v9.5h2.932v-9.5Zm-27.21,2.013c1.046,0,1.576.743,1.576,2.208v5.278h2.923v-5.816c0-2.6-1.062-3.915-3.155-3.915a3.372,3.372,0,0,0-3.052,1.735h-.037v-1.5h-2.932v9.5h2.932v-5.417a2.237,2.237,0,0,1,.491-1.485A1.572,1.572,0,0,1,1836.866-4180.316Zm-10.075-2.013v9.5h2.931v-9.5Zm-38.046-3.8v13.3h7.922v-2.43h-4.926v-10.873Zm76.816-.715a1.776,1.776,0,0,0-1.215.417,1.373,1.373,0,0,0-.474,1.077,1.42,1.42,0,0,0,.473,1.08,1.716,1.716,0,0,0,1.215.442,1.746,1.746,0,0,0,1.22-.427,1.42,1.42,0,0,0,.468-1.094,1.382,1.382,0,0,0-.468-1.077A1.774,1.774,0,0,0,1865.56-4186.848Zm-37.286,0a1.777,1.777,0,0,0-1.215.417,1.377,1.377,0,0,0-.473,1.077,1.423,1.423,0,0,0,.473,1.08,1.716,1.716,0,0,0,1.215.442,1.746,1.746,0,0,0,1.22-.427,1.419,1.419,0,0,0,.469-1.094,1.381,1.381,0,0,0-.469-1.077A1.774,1.774,0,0,0,1828.274-4186.848Zm77.875,12.172a1.342,1.342,0,0,1-.942-.32,1.071,1.071,0,0,1-.348-.822c0-.731.481-1.166,1.429-1.29l1.726-.222v.64a2.078,2.078,0,0,1-.52,1.444A1.748,1.748,0,0,1,1906.149-4174.675Zm54.356-.167c-1.465,0-2.208-.92-2.208-2.736a3.165,3.165,0,0,1,.575-2.022,1.963,1.963,0,0,1,1.614-.715c1.41,0,2.125.9,2.125,2.662C1962.611-4175.789,1961.9-4174.843,1960.505-4174.843Zm-11.616,0c-1.465,0-2.208-.92-2.208-2.736a3.16,3.16,0,0,1,.576-2.022,1.961,1.961,0,0,1,1.614-.715c1.409,0,2.124.9,2.124,2.662C1951-4175.789,1950.287-4174.843,1948.889-4174.843Zm-11.634,0a1.732,1.732,0,0,1-1.355-.6,2.232,2.232,0,0,1-.528-1.521v-.974a2.511,2.511,0,0,1,.58-1.716,1.87,1.87,0,0,1,1.462-.659,1.715,1.715,0,0,1,1.442.663,2.992,2.992,0,0,1,.505,1.842,3.762,3.762,0,0,1-.551,2.194A1.806,1.806,0,0,1,1937.256-4174.843Zm-123.082,0a1.732,1.732,0,0,1-1.448-.692,3.028,3.028,0,0,1-.528-1.878,3.594,3.594,0,0,1,.557-2.143,1.8,1.8,0,0,1,1.53-.761,1.733,1.733,0,0,1,1.388.636,2.322,2.322,0,0,1,.533,1.535v.752a2.885,2.885,0,0,1-.562,1.851A1.8,1.8,0,0,1,1814.173-4174.843Zm-11.384,0c-1.465,0-2.208-.92-2.208-2.736a3.16,3.16,0,0,1,.576-2.022,1.961,1.961,0,0,1,1.614-.715c1.409,0,2.124.9,2.124,2.662C1804.9-4175.789,1804.187-4174.843,1802.79-4174.843Zm125.235-3.7h-3.5a2.661,2.661,0,0,1,.626-1.458,1.583,1.583,0,0,1,1.22-.584c1.1,0,1.651.687,1.651,2.041Z" transform="translate(-1730.5 4201.5)" fill="#fff"/>
</svg>
