<svg xmlns="http://www.w3.org/2000/svg" width="129.555" height="40.648" viewBox="0 0 129.555 40.648">
  <path id="Exclusión_3" data-name="Exclusión 3" d="M1845.055-4160.852H1745.5a14.9,14.9,0,0,1-10.607-4.394,14.9,14.9,0,0,1-4.393-10.607V-4186.5a14.9,14.9,0,0,1,4.393-10.607,14.9,14.9,0,0,1,10.607-4.394h99.555a14.9,14.9,0,0,1,10.606,4.394,14.9,14.9,0,0,1,4.393,10.607v10.647a14.9,14.9,0,0,1-4.393,10.607A14.9,14.9,0,0,1,1845.055-4160.852Zm-56.5-11.7h0v2.467a7.069,7.069,0,0,0,3.043.547,6.228,6.228,0,0,0,4.434-1.451,5.4,5.4,0,0,0,1.531-4.1v-8.415h-2.931v1.1h-.037a2.9,2.9,0,0,0-2.6-1.336,3.894,3.894,0,0,0-3.126,1.419,5.806,5.806,0,0,0-1.187,3.832,5.211,5.211,0,0,0,1.067,3.433,3.572,3.572,0,0,0,2.885,1.28,3.288,3.288,0,0,0,2.96-1.6h.037v.752a2.826,2.826,0,0,1-.816,2.129,3.2,3.2,0,0,1-2.3.783,5.864,5.864,0,0,1-2.96-.853Zm-7.264-11.179a5.347,5.347,0,0,0-3.813,1.332,4.843,4.843,0,0,0-1.411,3.687,4.849,4.849,0,0,0,1.359,3.614,5.136,5.136,0,0,0,3.735,1.331,5.183,5.183,0,0,0,3.8-1.373,5.046,5.046,0,0,0,1.388-3.739,4.747,4.747,0,0,0-1.346-3.52A5.063,5.063,0,0,0,1781.291-4183.732Zm34.038,2.245c1.047,0,1.578.743,1.578,2.208V-4174h2.922v-5.816c0-2.6-1.061-3.915-3.154-3.915a3.373,3.373,0,0,0-3.053,1.735h-.037v-1.5h-2.931v9.5h2.931v-5.417a2.238,2.238,0,0,1,.491-1.485A1.572,1.572,0,0,1,1815.329-4181.487Zm-10.075-2.013v9.5h2.931v-9.5Zm-34.02-4.564V-4174h2.932v-14.064Zm35.505.046a1.779,1.779,0,0,0-1.216.417,1.377,1.377,0,0,0-.473,1.077,1.427,1.427,0,0,0,.473,1.081,1.721,1.721,0,0,0,1.216.441,1.751,1.751,0,0,0,1.22-.427,1.42,1.42,0,0,0,.468-1.094,1.382,1.382,0,0,0-.468-1.077A1.776,1.776,0,0,0,1806.739-4188.018Zm-14.1,12a1.729,1.729,0,0,1-1.447-.691,3.031,3.031,0,0,1-.529-1.879,3.592,3.592,0,0,1,.557-2.143,1.8,1.8,0,0,1,1.531-.761,1.731,1.731,0,0,1,1.386.636,2.321,2.321,0,0,1,.534,1.535v.752a2.887,2.887,0,0,1-.561,1.851A1.8,1.8,0,0,1,1792.637-4176.013Zm-11.383,0c-1.466,0-2.209-.92-2.209-2.736a3.16,3.16,0,0,1,.576-2.022,1.963,1.963,0,0,1,1.614-.715c1.41,0,2.125.9,2.125,2.662C1783.36-4176.959,1782.651-4176.013,1781.254-4176.013Z" transform="translate(-1730.5 4201.5)" fill="#fff"/>
</svg>
