<svg xmlns="http://www.w3.org/2000/svg" width="129.555" height="40.648" viewBox="0 0 129.555 40.648">
  <path id="Exclusión_1" data-name="Exclusión 1" d="M1845.055-4160.852H1745.5a14.9,14.9,0,0,1-10.607-4.394,14.9,14.9,0,0,1-4.393-10.607V-4186.5a14.9,14.9,0,0,1,4.393-10.607,14.9,14.9,0,0,1,10.607-4.394h99.555a14.9,14.9,0,0,1,10.606,4.394,14.9,14.9,0,0,1,4.393,10.607v10.647a14.9,14.9,0,0,1-4.393,10.607A14.9,14.9,0,0,1,1845.055-4160.852Zm-68.757-13.7h0v2.468a7.081,7.081,0,0,0,3.043.547,6.234,6.234,0,0,0,4.435-1.452,5.4,5.4,0,0,0,1.53-4.1v-8.414h-2.931v1.1h-.037a2.9,2.9,0,0,0-2.6-1.336,3.9,3.9,0,0,0-3.126,1.419,5.817,5.817,0,0,0-1.187,3.832,5.21,5.21,0,0,0,1.067,3.432,3.575,3.575,0,0,0,2.885,1.281,3.286,3.286,0,0,0,2.96-1.6h.037v.752a2.827,2.827,0,0,1-.816,2.129,3.2,3.2,0,0,1-2.3.785,5.848,5.848,0,0,1-2.96-.854Zm39.689-10.947v13.87h2.931v-5.474h.037a2.971,2.971,0,0,0,2.616,1.336,3.843,3.843,0,0,0,3.122-1.438,5.87,5.87,0,0,0,1.174-3.812,5.416,5.416,0,0,0-1.007-3.447,3.45,3.45,0,0,0-2.852-1.266,3.459,3.459,0,0,0-3.053,1.661h-.037v-1.429Zm-11.643,0v5.734c0,2.653,1.111,4,3.3,4a3.328,3.328,0,0,0,2.9-1.68h.046V-4176h2.922v-9.5H1810.6v5.437a2.237,2.237,0,0,1-.473,1.5,1.585,1.585,0,0,1-1.261.551c-1.059,0-1.6-.677-1.6-2.013v-5.474Zm-42.732,6.875h0v2.375a8.538,8.538,0,0,0,2.9.483,7.811,7.811,0,0,0,1.647-.172,4.463,4.463,0,0,0,1.4-.547,2.948,2.948,0,0,0,.973-.974,2.719,2.719,0,0,0,.367-1.443,2.711,2.711,0,0,0-.181-1.04,2.232,2.232,0,0,0-.519-.76,3.433,3.433,0,0,0-.812-.566,8.544,8.544,0,0,0-1.058-.445c-.2-.07-.422-.143-.654-.218a4.31,4.31,0,0,1-.6-.24,1.493,1.493,0,0,1-.437-.321.646.646,0,0,1-.167-.446.572.572,0,0,1,.112-.347.825.825,0,0,1,.306-.25,1.8,1.8,0,0,1,.45-.149,2.8,2.8,0,0,1,.542-.051,5.047,5.047,0,0,1,1.248.163,4.594,4.594,0,0,1,1.192.487v-2.264a9.739,9.739,0,0,0-1.28-.284,8.837,8.837,0,0,0-1.28-.1,6.894,6.894,0,0,0-1.554.172,4.266,4.266,0,0,0-1.327.538,2.87,2.87,0,0,0-.928.941,2.617,2.617,0,0,0-.348,1.373,3.009,3.009,0,0,0,.154,1.011,2.23,2.23,0,0,0,.445.752,2.893,2.893,0,0,0,.723.57,7.077,7.077,0,0,0,1,.46c.232.091.478.175.733.25a5.955,5.955,0,0,1,.7.251,1.914,1.914,0,0,1,.524.325.6.6,0,0,1,.2.464.693.693,0,0,1-.45.649,2.944,2.944,0,0,1-1.228.213,4.849,4.849,0,0,1-1.359-.213A6.347,6.347,0,0,1,1761.612-4178.625Zm30.82-4.862c1.046,0,1.576.743,1.576,2.208v5.28h2.923v-5.817c0-2.6-1.061-3.915-3.155-3.915a3.372,3.372,0,0,0-3.052,1.734h-.037v-1.5h-2.932v9.5h2.932v-5.419a2.232,2.232,0,0,1,.491-1.483A1.571,1.571,0,0,1,1792.432-4183.487Zm-21.839-2.013v9.5h2.932v-9.5Zm1.485-4.519a1.782,1.782,0,0,0-1.216.417,1.378,1.378,0,0,0-.472,1.077,1.427,1.427,0,0,0,.472,1.081,1.728,1.728,0,0,0,1.216.44,1.748,1.748,0,0,0,1.22-.427,1.422,1.422,0,0,0,.468-1.095,1.384,1.384,0,0,0-.468-1.077A1.773,1.773,0,0,0,1772.077-4190.019Zm48.678,12a1.7,1.7,0,0,1-1.363-.621,2.427,2.427,0,0,1-.52-1.6V-4181a2.73,2.73,0,0,1,.57-1.8,1.84,1.84,0,0,1,1.471-.682c1.292,0,1.948.843,1.948,2.505a3.76,3.76,0,0,1-.551,2.194A1.806,1.806,0,0,1,1820.755-4178.014Zm-40.374,0a1.731,1.731,0,0,1-1.448-.69,3.036,3.036,0,0,1-.529-1.879,3.592,3.592,0,0,1,.557-2.143,1.8,1.8,0,0,1,1.531-.761,1.731,1.731,0,0,1,1.387.636,2.316,2.316,0,0,1,.534,1.536v.751a2.881,2.881,0,0,1-.561,1.851A1.8,1.8,0,0,1,1780.381-4178.014Z" transform="translate(-1730.5 4201.5)" fill="#fff"/>
</svg>
