<svg xmlns="http://www.w3.org/2000/svg" width="147.896" height="40.648" viewBox="0 0 147.896 40.648">
  <path id="Exclusión_1" data-name="Exclusión 1" d="M1863.4-4160.852H1745.5a14.9,14.9,0,0,1-10.607-4.394,14.9,14.9,0,0,1-4.393-10.607V-4186.5a14.9,14.9,0,0,1,4.393-10.607,14.9,14.9,0,0,1,10.607-4.394h117.9a14.9,14.9,0,0,1,10.607,4.394,14.9,14.9,0,0,1,4.393,10.607v10.647a14.9,14.9,0,0,1-4.393,10.607A14.9,14.9,0,0,1,1863.4-4160.852ZM1784.354-4173h0v3.425a5.254,5.254,0,0,0,1.323.349,11.688,11.688,0,0,0,1.907.154,8.159,8.159,0,0,0,5.553-1.687,6,6,0,0,0,1.9-4.711v-9.034h-4.347v1.087h-.041a3.04,3.04,0,0,0-2.707-1.343,4.413,4.413,0,0,0-2.42.7,4.7,4.7,0,0,0-1.712,2,6.987,6.987,0,0,0-.615,3,5.912,5.912,0,0,0,1.179,3.892,3.979,3.979,0,0,0,3.21,1.41,3.79,3.79,0,0,0,1.768-.431,3.4,3.4,0,0,0,1.3-1.148h.041v.646a2.3,2.3,0,0,1-.881,1.876,3.659,3.659,0,0,1-2.348.708,5.991,5.991,0,0,1-1.569-.246A5.866,5.866,0,0,1,1784.354-4173Zm44.913-11.5v15.331h4.369v-5.917h.04a3.229,3.229,0,0,0,2.8,1.343,4.179,4.179,0,0,0,2.4-.729,4.74,4.74,0,0,0,1.65-2.051,7.5,7.5,0,0,0,.585-3.045,6.032,6.032,0,0,0-1.082-3.835,3.767,3.767,0,0,0-3.113-1.354,3.951,3.951,0,0,0-1.886.446,3.727,3.727,0,0,0-1.354,1.236h-.04v-1.426Zm-13.269,0v6.337a5.2,5.2,0,0,0,.9,3.3,3.191,3.191,0,0,0,2.625,1.118,3.493,3.493,0,0,0,1.276-.216,3.763,3.763,0,0,0,.985-.564,5.793,5.793,0,0,0,.98-1.1h.04v1.62h4.369v-10.5h-4.369v5.948a1.927,1.927,0,0,1-.323,1.189,1.137,1.137,0,0,1-.958.419c-.769,0-1.159-.521-1.159-1.548v-6.009Zm-49.013,7.2h0v3.066a10.851,10.851,0,0,0,1.7.348,13.253,13.253,0,0,0,1.748.145,6.415,6.415,0,0,0,3.789-.979,3.223,3.223,0,0,0,1.358-2.764,2.661,2.661,0,0,0-.7-1.9,5.16,5.16,0,0,0-2.307-1.209,4.879,4.879,0,0,1-1.107-.442.559.559,0,0,1-.277-.482.444.444,0,0,1,.256-.4,1.41,1.41,0,0,1,.688-.144,5.7,5.7,0,0,1,1.292.185,8.866,8.866,0,0,1,1.415.462v-2.943a11.615,11.615,0,0,0-2.912-.4,6.109,6.109,0,0,0-3.645.949,3.04,3.04,0,0,0-1.3,2.579,2.794,2.794,0,0,0,.636,1.9,4.424,4.424,0,0,0,2.031,1.168,10.652,10.652,0,0,1,1.558.6.529.529,0,0,1,.3.457c0,.442-.431.667-1.282.667a8.374,8.374,0,0,1-3.24-.861Zm35.724-4.256a1.074,1.074,0,0,1,.949.426,2.559,2.559,0,0,1,.292,1.4V-4174h4.369v-6.408c0-2.886-1.159-4.349-3.446-4.349a3.858,3.858,0,0,0-1.917.5,3.726,3.726,0,0,0-1.4,1.4h-.041v-1.641h-4.369v10.5h4.369v-5.988a1.885,1.885,0,0,1,.317-1.127A1.03,1.03,0,0,1,1802.709-4181.558Zm-25.522-2.943v10.5h4.369v-10.5Zm2.184-4.85a2.662,2.662,0,0,0-1.768.559,1.827,1.827,0,0,0-.661,1.461,1.888,1.888,0,0,0,.681,1.476,2.575,2.575,0,0,0,1.748.595,2.641,2.641,0,0,0,1.769-.575,1.884,1.884,0,0,0,.672-1.5,1.817,1.817,0,0,0-.672-1.461A2.686,2.686,0,0,0,1779.371-4189.35Zm55.658,12.407a1.222,1.222,0,0,1-1.107-.595,3,3,0,0,1-.369-1.589v-.2a2.748,2.748,0,0,1,.43-1.631,1.337,1.337,0,0,1,1.128-.595,1.341,1.341,0,0,1,1.184.564,2.751,2.751,0,0,1,.385,1.559,3.334,3.334,0,0,1-.431,1.841A1.385,1.385,0,0,1,1835.029-4176.943Zm-45.866,0a1.278,1.278,0,0,1-1.168-.595,3.041,3.041,0,0,1-.369-1.609,3.115,3.115,0,0,1,.441-1.754,1.363,1.363,0,0,1,1.179-.657,1.323,1.323,0,0,1,1.1.544,2.362,2.362,0,0,1,.415,1.466v.359a2.826,2.826,0,0,1-.425,1.636A1.362,1.362,0,0,1,1789.163-4176.943Z" transform="translate(-1730.5 4201.5)" fill="#fff"/>
</svg>
